<?xml version="1.0" encoding="UTF-8" standalone="no"?>
<svg
   xmlns:dc="http://purl.org/dc/elements/1.1/"
   xmlns:cc="http://creativecommons.org/ns#"
   xmlns:rdf="http://www.w3.org/1999/02/22-rdf-syntax-ns#"
   xmlns:svg="http://www.w3.org/2000/svg"
   xmlns="http://www.w3.org/2000/svg"
   id="svg8"
   version="1.1"
   viewBox="0 0 169.33333 42.333335"
   height="160"
   width="640">
  <defs
     id="defs2" />
  <metadata
     id="metadata5">
    <rdf:RDF>
      <cc:Work
         rdf:about="">
        <dc:format>image/svg+xml</dc:format>
        <dc:type
           rdf:resource="http://purl.org/dc/dcmitype/StillImage" />
        <dc:title></dc:title>
      </cc:Work>
    </rdf:RDF>
  </metadata>
  <g
     transform="translate(0,-254.66664)"
     id="layer1">
    <path
       id="rect4492"
       d="m 15.828992,259.43223 c -1.192966,0 -2.153356,0.96039 -2.153356,2.15336 v 23.58926 c 0,1.19297 0.96039,2.15335 2.153356,2.15335 H 36.97292 l 0.283978,7 c 0,0 6.644352,1.10739 6.361612,-8.98747 0.0042,-0.055 0.0088,-0.10983 0.0088,-0.16588 v -23.58926 c 0,-1.19297 -0.960387,-2.15336 -2.153356,-2.15336 z"
       style="fill:#ffdc48;fill-opacity:1;stroke:#000000;stroke-width:1.05833328;stroke-linecap:round;stroke-linejoin:round;stroke-miterlimit:4;stroke-dasharray:none;stroke-opacity:1" />
    <path
       id="rect10"
       d="m 26.008721,266.28401 c -1.192967,0 -2.153357,0.96039 -2.153357,2.15336 v 0.39119 h -3.181199 c -1.192969,0 -2.153359,0.96039 -2.153359,2.15336 v 8.12405 c 0,1.19297 0.96039,2.15335 2.153359,2.15335 h 15.954581 c 1.192967,0 2.153357,-0.96038 2.153357,-2.15335 v -8.12405 c 0,-1.19297 -0.96039,-2.15336 -2.153357,-2.15336 h -3.181202 v -0.39119 c 0,-1.19297 -0.96039,-2.15336 -2.153356,-2.15336 z"
       style="fill:#000000;fill-opacity:1;stroke:#000000;stroke-width:0.26458332;stroke-opacity:1" />
    <circle
       r="4.9919076"
       cy="274.83002"
       cx="28.651447"
       id="path4490"
       style="fill:#ffffff;fill-opacity:1;stroke:none;stroke-width:0.26458332;stroke-opacity:1" />
    <text
       id="text4499"
       y="283.1821"
       x="53.92926"
       style="font-style:normal;font-weight:normal;font-size:10.58333302px;line-height:1.25;font-family:sans-serif;letter-spacing:0px;word-spacing:0px;fill:#000000;fill-opacity:1;stroke:none;stroke-width:0.26458332"
       xml:space="preserve"><tspan
         style="font-style:normal;font-variant:normal;font-weight:normal;font-stretch:normal;font-size:25.39999962px;font-family:Ubuntu;-inkscape-font-specification:Ubuntu;stroke-width:0.26458332"
         y="283.1821"
         x="53.92926"
         id="tspan4497"><tspan
   id="tspan4501"
   style="line-height:21.75">T </tspan>A G G A</tspan></text>
  </g>
</svg>
