<?xml version="1.0" encoding="UTF-8" standalone="no"?>
<svg
   xmlns:dc="http://purl.org/dc/elements/1.1/"
   xmlns:cc="http://creativecommons.org/ns#"
   xmlns:rdf="http://www.w3.org/1999/02/22-rdf-syntax-ns#"
   xmlns:svg="http://www.w3.org/2000/svg"
   xmlns="http://www.w3.org/2000/svg"
   id="svg4579"
   version="1.1"
   viewBox="0 0 42.333332 42.333335"
   height="160"
   width="160">
  <defs
     id="defs4573" />
  <metadata
     id="metadata4576">
    <rdf:RDF>
      <cc:Work
         rdf:about="">
        <dc:format>image/svg+xml</dc:format>
        <dc:type
           rdf:resource="http://purl.org/dc/dcmitype/StillImage" />
        <dc:title></dc:title>
      </cc:Work>
    </rdf:RDF>
  </metadata>
  <g
     transform="translate(0,-254.66665)"
     id="layer1">
    <g
       transform="translate(2.2677555,-1.5119031)"
       id="g4594">
      <path
         style="fill:#ffdc48;fill-opacity:1;stroke:#000000;stroke-width:1.05833328;stroke-linecap:round;stroke-linejoin:round;stroke-miterlimit:4;stroke-dasharray:none;stroke-opacity:1"
         d="m 6.0763314,259.88002 c -1.19297,0 -2.15336,0.96039 -2.15336,2.15336 v 23.58926 c 0,1.19297 0.96039,2.15335 2.15336,2.15335 H 27.220261 l 0.28397,7 c 0,0 6.64435,1.10739 6.36162,-8.98747 0.004,-0.055 0.009,-0.10983 0.009,-0.16588 v -23.58926 c 0,-1.19297 -0.96039,-2.15336 -2.15336,-2.15336 z"
         id="rect4492" />
      <path
         style="fill:#000000;fill-opacity:1;stroke:#000000;stroke-width:0.26458332;stroke-opacity:1"
         d="m 16.256061,266.7318 c -1.19297,0 -2.15336,0.96039 -2.15336,2.15336 v 0.39119 h -3.1812 c -1.1929696,0 -2.1533596,0.96039 -2.1533596,2.15336 v 8.12405 c 0,1.19297 0.96039,2.15335 2.1533596,2.15335 h 15.95458 c 1.19297,0 2.15336,-0.96038 2.15336,-2.15335 v -8.12405 c 0,-1.19297 -0.96039,-2.15336 -2.15336,-2.15336 h -3.1812 v -0.39119 c 0,-1.19297 -0.96039,-2.15336 -2.15336,-2.15336 z"
         id="rect10" />
      <circle
         style="fill:#ffffff;fill-opacity:1;stroke:none;stroke-width:0.26458332;stroke-opacity:1"
         id="path4490"
         cx="18.898787"
         cy="275.2778"
         r="4.9919076" />
    </g>
  </g>
</svg>
